<?xml version="1.0" encoding="UTF-8"?>
<svg xmlns="http://www.w3.org/2000/svg" xmlns:xlink="http://www.w3.org/1999/xlink" width="750pt" height="749.999995pt" viewBox="0 0 750 749.999995" version="1.2">
<defs>
<clipPath id="clip1">
  <path d="M 75 75 L 675 75 L 675 675 L 75 675 Z M 75 75 "/>
</clipPath>
</defs>
<g id="surface1">
<g clip-path="url(#clip1)" clip-rule="nonzero">
<path style=" stroke:none;fill-rule:nonzero;fill:rgb(80.389404%,92.158508%,91.369629%);fill-opacity:1;" d="M 674.90625 374.90625 C 674.90625 540.59375 540.59375 674.90625 374.90625 674.90625 C 209.214844 674.90625 74.90625 540.59375 74.90625 374.90625 C 74.90625 209.214844 209.214844 74.90625 374.90625 74.90625 C 540.59375 74.90625 674.90625 209.214844 674.90625 374.90625 "/>
</g>
<path style=" stroke:none;fill-rule:nonzero;fill:rgb(67.449951%,88.238525%,87.838745%);fill-opacity:1;" d="M 639.378906 437.15625 L 110.429688 437.15625 L 110.429688 388.386719 L 159.4375 388.386719 L 159.4375 294.933594 L 218.800781 294.933594 L 218.800781 317.015625 L 268.496094 317.015625 L 268.496094 222.640625 L 339.59375 222.640625 L 339.59375 317.015625 L 390.667969 317.015625 L 390.667969 368.710938 L 443.820312 368.710938 L 443.820312 242.472656 L 500.417969 242.472656 L 500.417969 347.152344 L 548.042969 347.152344 L 548.042969 382.039062 L 580.476562 382.039062 L 580.476562 300.261719 L 639.378906 300.261719 L 639.378906 437.15625 "/>
<path style=" stroke:none;fill-rule:nonzero;fill:rgb(48.629761%,82.749939%,82.749939%);fill-opacity:1;" d="M 590.371094 427.964844 L 590.371094 334.511719 L 531.011719 334.511719 L 531.011719 356.59375 L 481.3125 356.59375 L 481.3125 262.222656 L 410.222656 262.222656 L 410.222656 356.59375 L 359.140625 356.59375 L 359.140625 408.285156 L 305.996094 408.285156 L 305.996094 282.046875 L 249.398438 282.046875 L 249.398438 386.726562 L 201.765625 386.726562 L 201.765625 421.621094 L 169.332031 421.621094 L 169.332031 339.835938 L 110.429688 339.835938 L 110.429688 476.738281 L 639.378906 476.738281 L 639.378906 427.964844 L 590.371094 427.964844 "/>
<path style=" stroke:none;fill-rule:nonzero;fill:rgb(56.469727%,79.219055%,64.709473%);fill-opacity:1;" d="M 90.460938 470.472656 C 130.367188 589.296875 242.636719 674.90625 374.90625 674.90625 C 507.171875 674.90625 619.449219 589.296875 659.351562 470.472656 L 90.460938 470.472656 "/>
<path style=" stroke:none;fill-rule:nonzero;fill:rgb(30.198669%,75.289917%,49.798584%);fill-opacity:1;" d="M 560.238281 472.300781 L 652.175781 472.300781 C 652.175781 472.300781 650.863281 455.632812 641.230469 463.964844 C 641.230469 463.964844 635.105469 436.785156 624.152344 459.351562 C 624.152344 459.351562 611.898438 422.753906 601.832031 456.492188 C 601.832031 456.492188 588.257812 439.445312 580.816406 464.398438 C 580.816406 464.398438 573.375 452.367188 568.117188 466.265625 C 568.117188 466.265625 562.867188 458.3125 560.238281 472.300781 "/>
<path style=" stroke:none;fill-rule:nonzero;fill:rgb(30.198669%,75.289917%,49.798584%);fill-opacity:1;" d="M 445.289062 472.300781 L 557.707031 472.300781 C 557.707031 472.300781 556.097656 451.914062 544.324219 462.105469 C 544.324219 462.105469 536.832031 428.871094 523.441406 456.460938 C 523.441406 456.460938 508.453125 411.710938 496.144531 452.964844 C 496.144531 452.964844 479.550781 432.128906 470.449219 462.644531 C 470.449219 462.644531 461.347656 447.929688 454.929688 464.925781 C 454.929688 464.925781 448.5 455.1875 445.289062 472.300781 "/>
<path style=" stroke:none;fill-rule:nonzero;fill:rgb(30.198669%,75.289917%,49.798584%);fill-opacity:1;" d="M 205.410156 472.300781 L 307.417969 472.300781 C 307.417969 472.300781 305.957031 453.804688 295.273438 463.050781 C 295.273438 463.050781 288.472656 432.890625 276.324219 457.929688 C 276.324219 457.929688 262.726562 417.324219 251.550781 454.757812 C 251.550781 454.757812 236.496094 435.84375 228.234375 463.535156 C 228.234375 463.535156 219.984375 450.191406 214.15625 465.605469 C 214.15625 465.605469 208.320312 456.773438 205.410156 472.300781 "/>
<path style=" stroke:none;fill-rule:nonzero;fill:rgb(30.198669%,75.289917%,49.798584%);fill-opacity:1;" d="M 90.460938 472.300781 L 202.878906 472.300781 C 202.878906 472.300781 201.269531 451.914062 189.488281 462.105469 C 189.488281 462.105469 181.996094 428.871094 168.613281 456.460938 C 168.613281 456.460938 153.625 411.710938 141.3125 452.964844 C 141.3125 452.964844 124.714844 432.128906 115.613281 462.644531 C 115.613281 462.644531 106.519531 447.929688 100.09375 464.925781 C 100.09375 464.925781 93.671875 455.1875 90.460938 472.300781 "/>
<path style=" stroke:none;fill-rule:nonzero;fill:rgb(89.019775%,33.729553%,35.289001%);fill-opacity:1;" d="M 170.011719 304.773438 C 170.011719 304.773438 119.398438 425.589844 152.820312 447.507812 C 180.160156 465.445312 213.46875 444.925781 210.601562 407.320312 C 207.734375 369.71875 181.949219 274.695312 170.011719 304.773438 "/>
<path style=" stroke:none;fill-rule:nonzero;fill:rgb(100%,100%,100%);fill-opacity:1;" d="M 175.128906 379.980469 L 175.128906 476.203125 C 175.128906 476.730469 175.558594 477.160156 176.085938 477.160156 C 176.617188 477.160156 177.039062 476.730469 177.039062 476.203125 L 177.039062 379.980469 C 177.039062 379.453125 176.617188 379.03125 176.085938 379.03125 C 175.558594 379.03125 175.128906 379.453125 175.128906 379.980469 "/>
<path style=" stroke:none;fill-rule:nonzero;fill:rgb(100%,100%,100%);fill-opacity:1;" d="M 155.285156 392.050781 C 155.292969 392.074219 157.742188 397.945312 161.484375 404.738281 C 165.238281 411.535156 170.207031 419.242188 175.539062 423.027344 C 175.96875 423.332031 176.566406 423.226562 176.871094 422.796875 C 177.175781 422.359375 177.070312 421.769531 176.640625 421.464844 C 171.8125 418.089844 166.820312 410.511719 163.15625 403.816406 C 161.3125 400.472656 159.78125 397.339844 158.714844 395.050781 C 158.179688 393.902344 157.765625 392.96875 157.476562 392.316406 C 157.195312 391.671875 157.046875 391.316406 157.046875 391.316406 C 156.839844 390.828125 156.285156 390.601562 155.796875 390.800781 C 155.304688 391.007812 155.078125 391.5625 155.285156 392.050781 "/>
<path style=" stroke:none;fill-rule:nonzero;fill:rgb(100%,100%,100%);fill-opacity:1;" d="M 176.210938 403.375 C 176.335938 403.359375 179.789062 402.886719 183.644531 399.5 C 187.503906 396.125 191.710938 389.84375 193.398438 378.457031 C 193.472656 377.929688 193.117188 377.449219 192.59375 377.367188 C 192.074219 377.292969 191.585938 377.648438 191.511719 378.175781 C 189.859375 389.222656 185.875 395.007812 182.386719 398.070312 C 180.640625 399.605469 179.011719 400.457031 177.820312 400.929688 C 177.226562 401.167969 176.753906 401.308594 176.425781 401.382812 L 176.0625 401.464844 L 175.972656 401.476562 L 175.96875 401.476562 C 175.441406 401.542969 175.070312 402.027344 175.136719 402.550781 C 175.210938 403.070312 175.6875 403.441406 176.210938 403.375 "/>
<path style=" stroke:none;fill-rule:nonzero;fill:rgb(85.488892%,27.059937%,28.239441%);fill-opacity:1;" d="M 123.070312 334.128906 C 123.070312 334.128906 81.121094 434.253906 108.824219 452.425781 C 131.484375 467.289062 159.082031 450.277344 156.707031 419.117188 C 154.328125 387.949219 132.964844 309.195312 123.070312 334.128906 "/>
<path style=" stroke:none;fill-rule:nonzero;fill:rgb(100%,100%,100%);fill-opacity:1;" d="M 127.316406 396.457031 L 127.316406 476.203125 C 127.316406 476.640625 127.671875 476.996094 128.105469 476.996094 C 128.542969 476.996094 128.898438 476.640625 128.898438 476.203125 L 128.898438 396.457031 C 128.898438 396.019531 128.542969 395.664062 128.105469 395.664062 C 127.671875 395.664062 127.316406 396.019531 127.316406 396.457031 "/>
<path style=" stroke:none;fill-rule:nonzero;fill:rgb(100%,100%,100%);fill-opacity:1;" d="M 110.859375 406.460938 C 110.867188 406.476562 112.898438 411.339844 116 416.96875 C 119.109375 422.605469 123.226562 428.996094 127.648438 432.128906 C 128.003906 432.378906 128.5 432.296875 128.75 431.941406 C 129.003906 431.582031 128.921875 431.089844 128.558594 430.839844 C 124.558594 428.03125 120.429688 421.761719 117.382812 416.207031 C 115.859375 413.4375 114.59375 410.839844 113.703125 408.941406 C 113.257812 407.996094 112.917969 407.21875 112.683594 406.683594 C 112.445312 406.144531 112.320312 405.847656 112.320312 405.847656 C 112.15625 405.445312 111.691406 405.253906 111.289062 405.425781 C 110.882812 405.589844 110.691406 406.054688 110.859375 406.460938 "/>
<path style=" stroke:none;fill-rule:nonzero;fill:rgb(100%,100%,100%);fill-opacity:1;" d="M 128.203125 415.84375 C 128.316406 415.828125 131.171875 415.4375 134.371094 412.636719 C 137.570312 409.832031 141.050781 404.632812 142.449219 395.191406 C 142.519531 394.761719 142.214844 394.355469 141.785156 394.289062 C 141.355469 394.226562 140.949219 394.523438 140.886719 394.960938 C 139.519531 404.113281 136.214844 408.90625 133.328125 411.445312 C 131.875 412.71875 130.519531 413.421875 129.542969 413.816406 C 129.046875 414.007812 128.65625 414.125 128.382812 414.191406 L 128.085938 414.257812 L 128.011719 414.265625 L 128.003906 414.273438 C 127.574219 414.324219 127.261719 414.726562 127.320312 415.15625 C 127.375 415.59375 127.773438 415.894531 128.203125 415.84375 "/>
<path style=" stroke:none;fill-rule:nonzero;fill:rgb(89.019775%,33.729553%,35.289001%);fill-opacity:1;" d="M 581.9375 308.410156 C 581.9375 308.410156 632.550781 429.21875 599.128906 451.144531 C 571.78125 469.082031 538.480469 448.558594 541.347656 410.957031 C 544.214844 373.351562 570 278.328125 581.9375 308.410156 "/>
<path style=" stroke:none;fill-rule:nonzero;fill:rgb(100%,100%,100%);fill-opacity:1;" d="M 574.902344 383.617188 L 574.902344 479.832031 C 574.902344 480.367188 575.332031 480.789062 575.855469 480.789062 C 576.390625 480.789062 576.8125 480.367188 576.8125 479.832031 L 576.8125 383.617188 C 576.8125 383.089844 576.390625 382.660156 575.855469 382.660156 C 575.332031 382.660156 574.902344 383.089844 574.902344 383.617188 "/>
<path style=" stroke:none;fill-rule:nonzero;fill:rgb(100%,100%,100%);fill-opacity:1;" d="M 594.902344 394.953125 C 594.902344 394.953125 594.753906 395.308594 594.472656 395.953125 C 593.472656 398.21875 590.835938 404.011719 587.355469 409.992188 C 583.890625 415.96875 579.523438 422.136719 575.308594 425.101562 C 574.878906 425.402344 574.773438 425.996094 575.078125 426.425781 C 575.382812 426.863281 575.972656 426.960938 576.410156 426.65625 C 581.742188 422.871094 586.710938 415.171875 590.464844 408.371094 C 594.207031 401.582031 596.65625 395.710938 596.664062 395.6875 C 596.863281 395.199219 596.636719 394.644531 596.152344 394.4375 C 595.664062 394.234375 595.101562 394.464844 594.902344 394.953125 "/>
<path style=" stroke:none;fill-rule:nonzero;fill:rgb(100%,100%,100%);fill-opacity:1;" d="M 575.980469 405.113281 L 575.96875 405.113281 C 575.714844 405.070312 572.632812 404.542969 569.226562 401.402344 C 565.828125 398.273438 562.039062 392.511719 560.4375 381.800781 C 560.363281 381.285156 559.875 380.921875 559.351562 381.003906 C 558.832031 381.078125 558.476562 381.566406 558.550781 382.089844 C 560.238281 393.480469 564.4375 399.761719 568.296875 403.136719 C 572.152344 406.519531 575.613281 406.996094 575.738281 407.007812 C 576.261719 407.078125 576.738281 406.707031 576.804688 406.179688 C 576.871094 405.660156 576.5 405.179688 575.980469 405.113281 "/>
<path style=" stroke:none;fill-rule:nonzero;fill:rgb(85.488892%,27.059937%,28.239441%);fill-opacity:1;" d="M 628.878906 337.761719 C 628.878906 337.761719 670.828125 437.890625 643.125 456.054688 C 620.464844 470.925781 592.867188 453.914062 595.242188 422.753906 C 597.613281 391.585938 618.984375 312.832031 628.878906 337.761719 "/>
<path style=" stroke:none;fill-rule:nonzero;fill:rgb(100%,100%,100%);fill-opacity:1;" d="M 623.050781 400.09375 L 623.050781 479.832031 C 623.050781 480.277344 623.40625 480.625 623.839844 480.625 C 624.277344 480.625 624.632812 480.277344 624.632812 479.832031 L 624.632812 400.09375 C 624.632812 399.65625 624.277344 399.300781 623.839844 399.300781 C 623.40625 399.300781 623.050781 399.65625 623.050781 400.09375 "/>
<path style=" stroke:none;fill-rule:nonzero;fill:rgb(100%,100%,100%);fill-opacity:1;" d="M 639.621094 409.484375 C 639.621094 409.484375 639.503906 409.777344 639.265625 410.3125 C 638.4375 412.195312 636.253906 416.992188 633.371094 421.953125 C 630.5 426.90625 626.878906 432.015625 623.382812 434.46875 C 623.027344 434.71875 622.945312 435.214844 623.199219 435.570312 C 623.449219 435.925781 623.9375 436.015625 624.300781 435.765625 C 628.714844 432.632812 632.839844 426.242188 635.949219 420.605469 C 639.042969 414.976562 641.082031 410.113281 641.089844 410.089844 C 641.25 409.691406 641.066406 409.222656 640.660156 409.0625 C 640.257812 408.890625 639.792969 409.082031 639.621094 409.484375 "/>
<path style=" stroke:none;fill-rule:nonzero;fill:rgb(100%,100%,100%);fill-opacity:1;" d="M 623.945312 417.902344 L 623.929688 417.902344 C 623.722656 417.875 621.167969 417.429688 618.347656 414.835938 C 615.527344 412.238281 612.386719 407.460938 611.058594 398.589844 C 610.992188 398.160156 610.59375 397.863281 610.164062 397.921875 C 609.726562 397.988281 609.429688 398.390625 609.496094 398.828125 C 610.898438 408.269531 614.378906 413.46875 617.578125 416.273438 C 620.777344 419.074219 623.632812 419.464844 623.738281 419.472656 C 624.175781 419.53125 624.574219 419.226562 624.625 418.792969 C 624.679688 418.363281 624.375 417.960938 623.945312 417.902344 "/>
<path style=" stroke:none;fill-rule:nonzero;fill:rgb(100%,100%,100%);fill-opacity:1;" d="M 201.757812 165.886719 L 357.21875 165.886719 C 357.21875 165.886719 361.757812 136.792969 315.398438 151.34375 C 315.398438 151.34375 311.757812 117.710938 280.847656 136.792969 C 280.847656 136.792969 258.121094 105.882812 229.945312 139.527344 C 229.945312 139.527344 206.304688 129.523438 201.757812 165.886719 "/>
<path style=" stroke:none;fill-rule:nonzero;fill:rgb(100%,100%,100%);fill-opacity:1;" d="M 548.050781 190.710938 L 406.609375 190.710938 C 406.609375 190.710938 402.476562 164.238281 444.65625 177.46875 C 444.65625 177.46875 447.96875 146.871094 476.09375 164.238281 C 476.09375 164.238281 496.769531 136.121094 522.40625 166.71875 C 522.40625 166.71875 543.917969 157.625 548.050781 190.710938 "/>
<path style=" stroke:none;fill-rule:nonzero;fill:rgb(89.019775%,33.729553%,35.289001%);fill-opacity:1;" d="M 560.238281 472.300781 L 662.246094 472.300781 C 662.246094 472.300781 660.785156 453.804688 650.101562 463.050781 C 650.101562 463.050781 643.300781 432.890625 631.15625 457.929688 C 631.15625 457.929688 617.554688 417.324219 606.386719 454.757812 C 606.386719 454.757812 591.324219 435.84375 583.070312 463.535156 C 583.070312 463.535156 574.8125 450.191406 568.984375 465.605469 C 568.984375 465.605469 563.15625 456.773438 560.238281 472.300781 "/>
<path style=" stroke:none;fill-rule:nonzero;fill:rgb(89.019775%,33.729553%,35.289001%);fill-opacity:1;" d="M 445.289062 472.300781 L 557.707031 472.300781 C 557.707031 472.300781 556.097656 451.914062 544.324219 462.105469 C 544.324219 462.105469 536.832031 428.871094 523.441406 456.460938 C 523.441406 456.460938 508.453125 411.710938 496.144531 452.964844 C 496.144531 452.964844 479.550781 432.128906 470.449219 462.644531 C 470.449219 462.644531 461.347656 447.929688 454.929688 464.925781 C 454.929688 464.925781 448.5 455.1875 445.289062 472.300781 "/>
<path style=" stroke:none;fill-rule:nonzero;fill:rgb(89.019775%,33.729553%,35.289001%);fill-opacity:1;" d="M 205.402344 472.300781 L 307.417969 472.300781 C 307.417969 472.300781 305.957031 453.804688 295.273438 463.050781 C 295.273438 463.050781 288.46875 432.890625 276.324219 457.929688 C 276.324219 457.929688 262.726562 417.324219 251.550781 454.757812 C 251.550781 454.757812 236.496094 435.84375 228.234375 463.535156 C 228.234375 463.535156 219.984375 450.191406 214.148438 465.605469 C 214.148438 465.605469 208.320312 456.773438 205.402344 472.300781 "/>
<path style=" stroke:none;fill-rule:nonzero;fill:rgb(89.019775%,33.729553%,35.289001%);fill-opacity:1;" d="M 581.9375 308.410156 C 581.9375 308.410156 632.550781 429.21875 599.125 451.144531 C 571.78125 469.082031 538.480469 448.558594 541.347656 410.957031 C 544.214844 373.351562 570 278.328125 581.9375 308.410156 "/>
<path style=" stroke:none;fill-rule:nonzero;fill:rgb(100%,100%,100%);fill-opacity:1;" d="M 574.902344 383.617188 L 574.902344 479.832031 C 574.902344 480.367188 575.332031 480.789062 575.855469 480.789062 C 576.390625 480.789062 576.8125 480.367188 576.8125 479.832031 L 576.8125 383.617188 C 576.8125 383.089844 576.390625 382.660156 575.855469 382.660156 C 575.332031 382.660156 574.902344 383.089844 574.902344 383.617188 "/>
<path style=" stroke:none;fill-rule:nonzero;fill:rgb(100%,100%,100%);fill-opacity:1;" d="M 594.902344 394.953125 C 594.902344 394.953125 594.753906 395.308594 594.464844 395.953125 C 593.472656 398.21875 590.835938 404.011719 587.355469 409.992188 C 583.882812 415.96875 579.523438 422.136719 575.308594 425.101562 C 574.878906 425.402344 574.773438 425.996094 575.078125 426.425781 C 575.382812 426.863281 575.972656 426.960938 576.410156 426.65625 C 581.742188 422.871094 586.710938 415.171875 590.464844 408.371094 C 594.207031 401.582031 596.65625 395.710938 596.664062 395.6875 C 596.863281 395.199219 596.636719 394.644531 596.152344 394.4375 C 595.664062 394.234375 595.101562 394.464844 594.902344 394.953125 "/>
<path style=" stroke:none;fill-rule:nonzero;fill:rgb(100%,100%,100%);fill-opacity:1;" d="M 575.980469 405.113281 L 575.96875 405.113281 C 575.714844 405.070312 572.632812 404.542969 569.226562 401.402344 C 565.828125 398.273438 562.039062 392.511719 560.4375 381.800781 C 560.355469 381.285156 559.875 380.921875 559.351562 381.003906 C 558.832031 381.078125 558.46875 381.566406 558.550781 382.089844 C 560.238281 393.480469 564.4375 399.761719 568.296875 403.136719 C 572.152344 406.519531 575.613281 406.996094 575.738281 407.007812 C 576.257812 407.078125 576.738281 406.707031 576.804688 406.179688 C 576.871094 405.660156 576.5 405.179688 575.980469 405.113281 "/>
<path style=" stroke:none;fill-rule:nonzero;fill:rgb(85.488892%,27.059937%,28.239441%);fill-opacity:1;" d="M 628.878906 337.761719 C 628.878906 337.761719 670.828125 437.890625 643.125 456.054688 C 620.464844 470.925781 592.867188 453.914062 595.234375 422.753906 C 597.613281 391.585938 618.984375 312.832031 628.878906 337.761719 "/>
<path style=" stroke:none;fill-rule:nonzero;fill:rgb(100%,100%,100%);fill-opacity:1;" d="M 623.050781 400.09375 L 623.050781 479.832031 C 623.050781 480.277344 623.40625 480.625 623.839844 480.625 C 624.277344 480.625 624.632812 480.277344 624.632812 479.832031 L 624.632812 400.09375 C 624.632812 399.65625 624.277344 399.300781 623.839844 399.300781 C 623.40625 399.300781 623.050781 399.65625 623.050781 400.09375 "/>
<path style=" stroke:none;fill-rule:nonzero;fill:rgb(100%,100%,100%);fill-opacity:1;" d="M 639.621094 409.484375 C 639.621094 409.484375 639.503906 409.777344 639.265625 410.3125 C 638.4375 412.195312 636.253906 416.992188 633.371094 421.953125 C 630.492188 426.90625 626.878906 432.015625 623.382812 434.46875 C 623.027344 434.71875 622.9375 435.214844 623.191406 435.570312 C 623.441406 435.925781 623.9375 436.015625 624.292969 435.765625 C 628.714844 432.632812 632.839844 426.242188 635.949219 420.605469 C 639.042969 414.976562 641.082031 410.113281 641.089844 410.089844 C 641.25 409.691406 641.058594 409.222656 640.660156 409.0625 C 640.25 408.890625 639.792969 409.082031 639.621094 409.484375 "/>
<path style=" stroke:none;fill-rule:nonzero;fill:rgb(100%,100%,100%);fill-opacity:1;" d="M 623.945312 417.902344 L 623.929688 417.902344 C 623.722656 417.875 621.167969 417.429688 618.347656 414.835938 C 615.527344 412.238281 612.386719 407.460938 611.058594 398.589844 C 610.992188 398.160156 610.59375 397.863281 610.15625 397.921875 C 609.726562 397.988281 609.429688 398.390625 609.496094 398.828125 C 610.898438 408.269531 614.378906 413.46875 617.578125 416.273438 C 620.777344 419.074219 623.632812 419.464844 623.738281 419.472656 C 624.175781 419.53125 624.566406 419.226562 624.625 418.792969 C 624.679688 418.363281 624.375 417.960938 623.945312 417.902344 "/>
<path style=" stroke:none;fill-rule:nonzero;fill:rgb(44.709778%,51.368713%,71.369934%);fill-opacity:1;" d="M 484.03125 214.117188 C 484.03125 214.117188 487.898438 212.90625 472.855469 195.53125 L 468.273438 198.960938 L 484.03125 214.117188 "/>
<path style=" stroke:none;fill-rule:nonzero;fill:rgb(25.099182%,22.349548%,47.059631%);fill-opacity:1;" d="M 472.53125 198.960938 C 472.53125 198.960938 483.3125 213.117188 484.03125 214.117188 C 485.488281 216.15625 466.125 209.675781 466.125 209.675781 L 472.53125 198.960938 "/>
<path style=" stroke:none;fill-rule:nonzero;fill:rgb(50.979614%,52.549744%,79.60968%);fill-opacity:1;" d="M 565.183594 546.359375 C 565.183594 552.277344 560.386719 557.078125 554.460938 557.078125 C 548.546875 557.078125 543.746094 552.277344 543.746094 546.359375 C 543.746094 540.445312 548.546875 535.644531 554.460938 535.644531 C 560.386719 535.644531 565.183594 540.445312 565.183594 546.359375 "/>
<path style=" stroke:none;fill-rule:nonzero;fill:rgb(25.099182%,22.349548%,47.059631%);fill-opacity:1;" d="M 559.632812 546.359375 C 559.632812 549.210938 557.320312 551.53125 554.460938 551.53125 C 551.609375 551.53125 549.300781 549.210938 549.300781 546.359375 C 549.300781 543.503906 551.609375 541.191406 554.460938 541.191406 C 557.320312 541.191406 559.632812 543.503906 559.632812 546.359375 "/>
<path style=" stroke:none;fill-rule:nonzero;fill:rgb(75.689697%,14.509583%,53.729248%);fill-opacity:1;" d="M 581.914062 535.644531 L 413.125 535.644531 C 411.859375 535.644531 410.832031 534.617188 410.832031 533.351562 C 410.832031 532.082031 411.859375 531.0625 413.125 531.0625 L 580.757812 531.0625 L 599.40625 521.019531 C 600.523438 520.421875 601.90625 520.835938 602.507812 521.945312 C 603.105469 523.0625 602.691406 524.457031 601.582031 525.054688 L 581.914062 535.644531 "/>
<path style=" stroke:none;fill-rule:nonzero;fill:rgb(93.328857%,39.608765%,52.549744%);fill-opacity:1;" d="M 437.59375 248.628906 L 412.628906 289.179688 L 351.257812 311.503906 L 353.011719 316.808594 C 353.011719 316.808594 405.378906 311.054688 415.222656 308.1875 C 422.234375 306.144531 452.226562 269.421875 452.226562 269.421875 C 452.226562 269.421875 449.828125 251.078125 437.59375 248.628906 "/>
<path style=" stroke:none;fill-rule:nonzero;fill:rgb(47.839355%,54.119873%,72.158813%);fill-opacity:1;" d="M 437.757812 247.5625 L 419.234375 274.574219 C 419.234375 274.574219 417.554688 288.59375 430.527344 296.917969 L 443.234375 286.792969 L 437.757812 247.5625 "/>
<path style=" stroke:none;fill-rule:nonzero;fill:rgb(93.328857%,39.608765%,52.549744%);fill-opacity:1;" d="M 453.417969 471.359375 C 455.875 486.765625 458.632812 515.097656 458.632812 515.097656 C 456.46875 516.828125 450.476562 516.382812 450.476562 516.382812 C 448.515625 508.867188 442.332031 482.417969 440.117188 473.457031 L 453.417969 471.359375 "/>
<path style=" stroke:none;fill-rule:nonzero;fill:rgb(25.099182%,22.349548%,47.059631%);fill-opacity:1;" d="M 525.109375 377.121094 C 525.109375 377.121094 514.835938 388.421875 500.972656 386.128906 C 494.191406 385.007812 487.421875 385.347656 487.421875 385.347656 C 487.421875 385.347656 446.960938 416.324219 444.992188 425.539062 L 462.320312 510.34375 C 462.320312 510.34375 454.78125 511.578125 446.96875 509.492188 L 420.183594 428.457031 C 420.183594 428.457031 420.515625 421.996094 421.101562 419.523438 C 421.546875 417.652344 423.339844 411.75 423.339844 411.75 L 458.707031 361.007812 C 458.707031 361.007812 482.648438 351.664062 528.804688 346.96875 C 528.804688 346.96875 531.445312 368.503906 525.109375 377.121094 "/>
<path style=" stroke:none;fill-rule:nonzero;fill:rgb(25.099182%,22.349548%,47.059631%);fill-opacity:1;" d="M 459.742188 513.976562 C 459.742188 513.976562 451.085938 513.332031 449.96875 513.75 L 448.839844 518.746094 C 448.839844 518.746094 433.296875 527.078125 432.015625 528.203125 L 432.015625 531.089844 L 461.984375 531.089844 C 461.984375 531.089844 463.59375 531.039062 459.742188 513.976562 "/>
<path style=" stroke:none;fill-rule:nonzero;fill:rgb(87.838745%,29.40979%,45.098877%);fill-opacity:1;" d="M 447.796875 242.125 C 448.539062 238.46875 448.34375 228.0625 446.589844 218.234375 C 446.152344 215.792969 460.949219 201.003906 460.949219 201.003906 C 460.949219 201.003906 466.199219 224.269531 474.011719 233.46875 C 474.011719 233.46875 475.175781 233.417969 477.039062 233.359375 L 477.039062 252.929688 L 474.078125 254.144531 L 443.234375 254.144531 L 443.234375 246.035156 C 445.570312 244.605469 447.605469 243.101562 447.796875 242.125 "/>
<path style=" stroke:none;fill-rule:nonzero;fill:rgb(56.079102%,59.21936%,81.568909%);fill-opacity:1;" d="M 454.964844 365.746094 L 435.816406 264.609375 C 435.816406 264.609375 432.15625 249.398438 441.382812 244.214844 L 448.0625 240.089844 L 447.921875 245.363281 C 460.757812 254.027344 474.464844 233.378906 474.464844 233.378906 C 478.386719 232.625 505.113281 227.476562 508.0625 242.613281 C 508.0625 242.613281 531.015625 345.433594 529.699219 348.398438 C 529.699219 348.398438 495.058594 367.058594 454.964844 365.746094 "/>
<path style=" stroke:none;fill-rule:nonzero;fill:rgb(78.42865%,21.958923%,38.42926%);fill-opacity:1;" d="M 448.0625 240.089844 C 448.425781 235.660156 448.125 227.523438 446.8125 219.539062 L 458.957031 206.195312 L 462.066406 205.449219 C 462.808594 208.179688 463.882812 211.90625 465.25 215.851562 C 463.761719 223.605469 459.007812 242.265625 448.0625 240.089844 "/>
<path style=" stroke:none;fill-rule:nonzero;fill:rgb(93.328857%,39.608765%,52.549744%);fill-opacity:1;" d="M 430.550781 191.539062 C 430.550781 191.539062 429.3125 204.90625 431.367188 215.808594 C 432.578125 222.242188 438.882812 229.433594 442.945312 231.230469 C 442.945312 231.230469 444.058594 231.867188 448.058594 231.226562 C 452.980469 230.441406 461.851562 223.117188 464.3125 213.453125 C 464.3125 213.453125 467.941406 214.066406 469.472656 209.550781 C 471.003906 205.019531 469.066406 198.65625 464.296875 202.871094 C 464.296875 202.871094 465.660156 182.921875 456.898438 181.675781 C 448.136719 180.433594 431.386719 177.375 430.550781 191.539062 "/>
<path style=" stroke:none;fill-rule:nonzero;fill:rgb(16.859436%,18.429565%,31.759644%);fill-opacity:1;" d="M 444.859375 200.523438 C 445.355469 199.8125 446.152344 199.351562 447.101562 199.351562 C 448.117188 199.351562 448.988281 199.90625 449.457031 200.738281 C 449.558594 200.921875 449.796875 200.988281 449.980469 200.886719 C 450.167969 200.773438 450.234375 200.539062 450.128906 200.351562 C 449.53125 199.300781 448.40625 198.582031 447.109375 198.574219 C 445.894531 198.574219 444.84375 199.175781 444.222656 200.085938 C 444.101562 200.261719 444.148438 200.5 444.324219 200.625 C 444.496094 200.746094 444.738281 200.699219 444.859375 200.523438 "/>
<path style=" stroke:none;fill-rule:nonzero;fill:rgb(16.859436%,18.429565%,31.759644%);fill-opacity:1;" d="M 446.828125 204.433594 C 446.828125 205.171875 447.421875 205.773438 448.152344 205.773438 C 448.894531 205.78125 449.492188 205.179688 449.492188 204.449219 C 449.492188 203.714844 448.902344 203.113281 448.167969 203.105469 C 447.425781 203.105469 446.835938 203.699219 446.828125 204.433594 "/>
<path style=" stroke:none;fill-rule:nonzero;fill:rgb(16.859436%,18.429565%,31.759644%);fill-opacity:1;" d="M 432.816406 200.144531 C 433.3125 199.433594 434.121094 198.976562 435.066406 198.96875 C 436.074219 198.976562 436.949219 199.53125 437.414062 200.359375 C 437.519531 200.546875 437.757812 200.613281 437.941406 200.5 C 438.125 200.398438 438.191406 200.160156 438.089844 199.976562 C 437.496094 198.921875 436.363281 198.203125 435.066406 198.199219 C 433.859375 198.199219 432.808594 198.796875 432.179688 199.707031 C 432.0625 199.878906 432.105469 200.121094 432.285156 200.25 C 432.460938 200.367188 432.699219 200.324219 432.816406 200.144531 "/>
<path style=" stroke:none;fill-rule:nonzero;fill:rgb(16.859436%,18.429565%,31.759644%);fill-opacity:1;" d="M 433.644531 204.375 C 433.640625 205.113281 434.230469 205.714844 434.972656 205.722656 C 435.703125 205.722656 436.304688 205.128906 436.304688 204.386719 C 436.3125 203.65625 435.71875 203.054688 434.980469 203.046875 C 434.246094 203.046875 433.644531 203.648438 433.644531 204.375 "/>
<path style=" stroke:none;fill-rule:nonzero;fill:rgb(100%,100%,100%);fill-opacity:1;" d="M 447.515625 217.960938 L 436.066406 217.910156 C 436.066406 217.910156 442.074219 225.300781 447.515625 217.960938 "/>
<path style=" stroke:none;fill-rule:nonzero;fill:rgb(25.099182%,22.349548%,47.059631%);fill-opacity:1;" d="M 430.558594 184.46875 C 430.160156 198.011719 451.863281 188.472656 454.308594 189.28125 C 456.964844 190.148438 459.941406 191.882812 460.207031 197.613281 C 460.46875 203.34375 462.585938 204.507812 462.585938 204.507812 C 468.308594 198.050781 469.976562 206.59375 469.976562 206.59375 C 469.976562 206.59375 474.558594 196.242188 474.558594 190.800781 C 474.558594 188.546875 473.996094 186.289062 473.367188 184.46875 L 430.558594 184.46875 "/>
<path style=" stroke:none;fill-rule:nonzero;fill:rgb(93.328857%,39.608765%,52.549744%);fill-opacity:1;" d="M 500.625 261.667969 L 545.441406 260.667969 L 543.777344 318.769531 L 549.332031 319.363281 C 549.332031 319.363281 566.191406 256.9375 562.28125 250.765625 C 558.378906 244.597656 500.5 233.90625 500.5 233.90625 C 500.5 233.90625 498.871094 249.324219 500.625 261.667969 "/>
<path style=" stroke:none;fill-rule:nonzero;fill:rgb(93.328857%,39.608765%,52.549744%);fill-opacity:1;" d="M 547.019531 314.15625 C 547.019531 314.15625 552.558594 316.636719 552.558594 321.414062 C 552.558594 323.324219 552.367188 329.238281 551.410156 329.238281 C 550.457031 329.238281 547.976562 329.433594 546.828125 329.238281 C 546.828125 329.238281 545.109375 330.75 543.199219 329.328125 C 543.199219 329.328125 538.613281 330.195312 539 326.953125 C 539.378906 323.699219 539.761719 314.535156 547.019531 314.15625 "/>
<path style=" stroke:none;fill-rule:nonzero;fill:rgb(93.328857%,39.608765%,52.549744%);fill-opacity:1;" d="M 563.214844 505.957031 C 567.578125 520.9375 571.332031 540.519531 571.332031 540.519531 C 569.398438 542.511719 563.402344 542.804688 563.402344 542.804688 C 560.519531 535.59375 553.597656 518.308594 550.277344 509.691406 L 563.214844 505.957031 "/>
<path style=" stroke:none;fill-rule:nonzero;fill:rgb(25.099182%,22.349548%,47.059631%);fill-opacity:1;" d="M 494.679688 381.914062 C 494.984375 383.371094 558.289062 537.898438 558.289062 537.898438 C 566.378906 537.742188 573.273438 534.453125 573.273438 534.453125 L 528.839844 365.816406 L 494.679688 381.914062 "/>
<path style=" stroke:none;fill-rule:nonzero;fill:rgb(25.099182%,22.349548%,47.059631%);fill-opacity:1;" d="M 571.8125 538.660156 C 571.8125 538.660156 563.320312 540.460938 562.355469 541.164062 L 562.660156 546.273438 C 562.660156 546.273438 550.042969 558.59375 549.125 560.039062 L 549.921875 562.808594 L 578.714844 554.476562 C 578.714844 554.476562 580.238281 553.980469 571.8125 538.660156 "/>
<path style=" stroke:none;fill-rule:nonzero;fill:rgb(93.328857%,39.608765%,52.549744%);fill-opacity:1;" d="M 359.824219 311.03125 C 359.824219 311.03125 360.132812 313.898438 358.734375 317.636719 C 357.335938 321.367188 357.070312 324.136719 357.070312 324.136719 C 357.070312 324.136719 354.410156 325.789062 356.550781 318.605469 C 356.550781 318.605469 339.859375 321.332031 338.230469 321.25 C 336.609375 321.167969 331.832031 314.472656 356.585938 309.3125 L 359.824219 311.03125 "/>
<path style=" stroke:none;fill-rule:nonzero;fill:rgb(56.079102%,59.21936%,81.568909%);fill-opacity:1;" d="M 492.207031 232.082031 L 535.230469 240.265625 C 535.230469 240.265625 538.15625 259.386719 535.230469 265.398438 L 506.230469 267.984375 C 506.230469 267.984375 485.90625 262.082031 492.207031 232.082031 "/>
<path style=" stroke:none;fill-rule:nonzero;fill:rgb(50.979614%,52.549744%,79.60968%);fill-opacity:1;" d="M 453.449219 546.359375 C 453.449219 552.277344 448.648438 557.078125 442.734375 557.078125 C 436.816406 557.078125 432.015625 552.277344 432.015625 546.359375 C 432.015625 540.445312 436.816406 535.644531 442.734375 535.644531 C 448.648438 535.644531 453.449219 540.445312 453.449219 546.359375 "/>
<path style=" stroke:none;fill-rule:nonzero;fill:rgb(25.099182%,22.349548%,47.059631%);fill-opacity:1;" d="M 447.664062 546.359375 C 447.664062 549.085938 445.457031 551.292969 442.734375 551.292969 C 440.007812 551.292969 437.800781 549.085938 437.800781 546.359375 C 437.800781 543.636719 440.007812 541.429688 442.734375 541.429688 C 445.457031 541.429688 447.664062 543.636719 447.664062 546.359375 "/>
<path style=" stroke:none;fill-rule:nonzero;fill:rgb(56.079102%,59.21936%,81.568909%);fill-opacity:1;" d="M 430.179688 185.039062 C 430.179688 185.039062 461.683594 183.105469 473.714844 200.546875 C 473.714844 200.546875 485.320312 177.738281 458.246094 172.292969 C 431.171875 166.851562 431.625 178.457031 430.179688 185.039062 "/>
<path style=" stroke:none;fill-rule:nonzero;fill:rgb(25.099182%,22.349548%,47.059631%);fill-opacity:1;" d="M 345.042969 281.667969 C 345.042969 281.667969 346.761719 280.519531 348.574219 281.097656 C 350.390625 281.667969 355.734375 287.015625 352.109375 294.945312 C 348.480469 302.871094 344.28125 297.332031 344.28125 297.332031 L 345.042969 281.667969 "/>
<path style=" stroke:none;fill-rule:nonzero;fill:rgb(93.328857%,39.608765%,52.549744%);fill-opacity:1;" d="M 228.765625 255.460938 L 205.515625 304.308594 L 158.328125 271.367188 L 155.0625 275.894531 C 155.0625 275.894531 199.789062 317.09375 205.417969 321.753906 C 211.046875 326.410156 243.621094 277.714844 243.621094 277.714844 C 243.621094 277.714844 241.183594 256.582031 228.765625 255.460938 "/>
<path style=" stroke:none;fill-rule:nonzero;fill:rgb(93.328857%,39.608765%,52.549744%);fill-opacity:1;" d="M 159.660156 277.5 C 159.660156 277.5 153.730469 278.804688 150.886719 274.96875 C 149.746094 273.433594 146.367188 268.570312 147.136719 268 C 147.910156 267.429688 149.78125 265.792969 150.820312 265.265625 C 150.820312 265.265625 151.300781 263.03125 153.683594 263.039062 C 153.683594 263.039062 156.847656 259.609375 158.476562 262.4375 C 160.105469 265.273438 165.257812 272.863281 159.660156 277.5 "/>
<path style=" stroke:none;fill-rule:nonzero;fill:rgb(25.099182%,22.349548%,47.059631%);fill-opacity:1;" d="M 274.679688 194.9375 C 274.679688 194.9375 270.316406 209.355469 280.714844 211.824219 C 294.652344 215.125 310.496094 218.257812 305.789062 225.019531 C 301.070312 231.78125 296.324219 238.792969 303.773438 237.609375 C 320.679688 234.921875 335.207031 237.917969 332.507812 245.324219 C 332.507812 245.324219 321.355469 270.96875 270.992188 274.523438 C 220.636719 278.085938 247.78125 255.097656 247.894531 250.707031 C 248.003906 246.308594 247.984375 241.597656 242.753906 239.5625 C 237.535156 237.527344 227.433594 232.941406 237.660156 216.6875 L 274.679688 194.9375 "/>
<path style=" stroke:none;fill-rule:nonzero;fill:rgb(25.099182%,22.349548%,47.059631%);fill-opacity:1;" d="M 377.714844 537.105469 C 378.855469 538.429688 378.699219 540.429688 377.375 541.578125 C 376.046875 542.710938 374.042969 542.5625 372.910156 541.238281 C 371.769531 539.902344 371.917969 537.902344 373.25 536.765625 C 374.574219 535.625 376.574219 535.777344 377.714844 537.105469 "/>
<path style=" stroke:none;fill-rule:nonzero;fill:rgb(58.039856%,53.729248%,79.998779%);fill-opacity:1;" d="M 376.367188 538.257812 C 376.871094 538.84375 376.804688 539.726562 376.21875 540.230469 C 375.632812 540.726562 374.753906 540.660156 374.25 540.082031 C 373.753906 539.488281 373.820312 538.609375 374.40625 538.105469 C 374.988281 537.609375 375.863281 537.675781 376.367188 538.257812 "/>
<path style=" stroke:none;fill-rule:nonzero;fill:rgb(25.099182%,22.349548%,47.059631%);fill-opacity:1;" d="M 382.394531 530.75 C 383.535156 532.078125 383.378906 534.074219 382.054688 535.214844 C 380.722656 536.355469 378.722656 536.207031 377.582031 534.875 C 376.441406 533.550781 376.597656 531.550781 377.921875 530.410156 C 379.253906 529.269531 381.253906 529.417969 382.394531 530.75 "/>
<path style=" stroke:none;fill-rule:nonzero;fill:rgb(58.039856%,53.729248%,79.998779%);fill-opacity:1;" d="M 381.046875 531.90625 C 381.550781 532.492188 381.476562 533.363281 380.898438 533.867188 C 380.3125 534.371094 379.433594 534.304688 378.929688 533.71875 C 378.433594 533.136719 378.492188 532.253906 379.078125 531.757812 C 379.664062 531.253906 380.542969 531.320312 381.046875 531.90625 "/>
<path style=" stroke:none;fill-rule:nonzero;fill:rgb(25.099182%,22.349548%,47.059631%);fill-opacity:1;" d="M 386.347656 524.457031 C 387.480469 525.78125 387.335938 527.78125 386.007812 528.929688 C 384.675781 530.0625 382.675781 529.914062 381.535156 528.589844 C 380.394531 527.261719 380.550781 525.257812 381.875 524.125 C 383.210938 522.984375 385.207031 523.132812 386.347656 524.457031 "/>
<path style=" stroke:none;fill-rule:nonzero;fill:rgb(58.039856%,53.729248%,79.998779%);fill-opacity:1;" d="M 385 525.613281 C 385.496094 526.195312 385.429688 527.078125 384.851562 527.582031 C 384.269531 528.078125 383.386719 528.011719 382.882812 527.425781 C 382.378906 526.839844 382.445312 525.96875 383.03125 525.464844 C 383.617188 524.96875 384.496094 525.027344 385 525.613281 "/>
<path style=" stroke:none;fill-rule:nonzero;fill:rgb(25.099182%,22.349548%,47.059631%);fill-opacity:1;" d="M 390.207031 518.027344 C 391.339844 519.355469 391.191406 521.355469 389.867188 522.492188 C 388.535156 523.632812 386.535156 523.488281 385.394531 522.152344 C 384.253906 520.828125 384.410156 518.828125 385.734375 517.6875 C 387.066406 516.546875 389.058594 516.695312 390.207031 518.027344 "/>
<path style=" stroke:none;fill-rule:nonzero;fill:rgb(58.039856%,53.729248%,79.998779%);fill-opacity:1;" d="M 388.859375 519.183594 C 389.355469 519.769531 389.289062 520.648438 388.703125 521.144531 C 388.125 521.648438 387.246094 521.582031 386.742188 521 C 386.238281 520.414062 386.304688 519.539062 386.890625 519.035156 C 387.476562 518.53125 388.355469 518.597656 388.859375 519.183594 "/>
<path style=" stroke:none;fill-rule:nonzero;fill:rgb(25.099182%,22.349548%,47.059631%);fill-opacity:1;" d="M 373.707031 542.746094 L 390.851562 516.667969 C 391.007812 516.4375 390.941406 516.117188 390.710938 515.960938 C 390.472656 515.816406 390.164062 515.875 390.007812 516.109375 L 372.863281 542.191406 C 372.707031 542.429688 372.777344 542.738281 373.003906 542.894531 C 373.242188 543.050781 373.554688 542.984375 373.707031 542.746094 "/>
<path style=" stroke:none;fill-rule:nonzero;fill:rgb(93.328857%,39.608765%,52.549744%);fill-opacity:1;" d="M 331.171875 495.148438 C 347.746094 503.714844 367.015625 512.957031 367.71875 512.617188 C 367.71875 512.617188 369.546875 512.195312 370.363281 508.859375 C 370.554688 508.089844 292.191406 451.640625 292.191406 451.640625 C 292.191406 451.640625 292.371094 437.984375 292.117188 425.167969 L 269.554688 427.054688 C 269.554688 427.054688 268.589844 462.386719 271.375 467.199219 C 274.167969 472.019531 331.171875 495.148438 331.171875 495.148438 "/>
<path style=" stroke:none;fill-rule:nonzero;fill:rgb(58.039856%,53.729248%,79.998779%);fill-opacity:1;" d="M 363.769531 511.769531 L 367.953125 506.085938 C 367.953125 506.085938 380.742188 511.335938 384.847656 516.984375 C 387.15625 520.175781 373.488281 537.726562 371.257812 539.042969 C 371.257812 539.042969 365.605469 537.304688 369.644531 529.085938 C 369.644531 529.085938 371.96875 522.761719 370.480469 520.71875 C 368.515625 518.007812 363.769531 511.769531 363.769531 511.769531 "/>
<path style=" stroke:none;fill-rule:nonzero;fill:rgb(45.098877%,44.309998%,71.369934%);fill-opacity:1;" d="M 296.011719 439.132812 C 295.316406 413.519531 298.945312 382.863281 298.945312 382.863281 C 287.601562 390.089844 259.277344 402.980469 259.277344 402.980469 C 259.277344 402.980469 261.578125 421.878906 265.851562 439.132812 C 265.851562 439.132812 277.847656 443.871094 296.011719 439.132812 "/>
<path style=" stroke:none;fill-rule:nonzero;fill:rgb(25.099182%,22.349548%,47.059631%);fill-opacity:1;" d="M 217.035156 560.773438 C 217 562.527344 215.546875 563.910156 213.800781 563.875 C 212.050781 563.835938 210.660156 562.386719 210.699219 560.636719 C 210.742188 558.882812 212.1875 557.5 213.933594 557.535156 C 215.6875 557.578125 217.074219 559.023438 217.035156 560.773438 "/>
<path style=" stroke:none;fill-rule:nonzero;fill:rgb(58.039856%,53.729248%,79.998779%);fill-opacity:1;" d="M 215.265625 560.734375 C 215.246094 561.503906 214.609375 562.121094 213.835938 562.097656 C 213.066406 562.082031 212.460938 561.445312 212.476562 560.675781 C 212.488281 559.90625 213.125 559.289062 213.898438 559.3125 C 214.667969 559.328125 215.28125 559.964844 215.265625 560.734375 "/>
<path style=" stroke:none;fill-rule:nonzero;fill:rgb(25.099182%,22.349548%,47.059631%);fill-opacity:1;" d="M 224.761719 559.164062 C 224.722656 560.917969 223.277344 562.296875 221.523438 562.265625 C 219.777344 562.230469 218.390625 560.773438 218.429688 559.03125 C 218.464844 557.285156 219.910156 555.890625 221.664062 555.929688 C 223.414062 555.964844 224.796875 557.417969 224.761719 559.164062 "/>
<path style=" stroke:none;fill-rule:nonzero;fill:rgb(58.039856%,53.729248%,79.998779%);fill-opacity:1;" d="M 222.988281 559.128906 C 222.96875 559.898438 222.332031 560.503906 221.570312 560.488281 C 220.796875 560.476562 220.183594 559.839844 220.199219 559.070312 C 220.21875 558.296875 220.859375 557.691406 221.628906 557.699219 C 222.390625 557.71875 223.003906 558.359375 222.988281 559.128906 "/>
<path style=" stroke:none;fill-rule:nonzero;fill:rgb(25.099182%,22.349548%,47.059631%);fill-opacity:1;" d="M 231.90625 557.121094 C 231.867188 558.867188 230.417969 560.253906 228.671875 560.222656 C 226.921875 560.1875 225.53125 558.734375 225.566406 556.980469 C 225.605469 555.234375 227.054688 553.847656 228.804688 553.882812 C 230.558594 553.921875 231.941406 555.375 231.90625 557.121094 "/>
<path style=" stroke:none;fill-rule:nonzero;fill:rgb(58.039856%,53.729248%,79.998779%);fill-opacity:1;" d="M 230.128906 557.082031 C 230.113281 557.855469 229.476562 558.46875 228.707031 558.445312 C 227.9375 558.429688 227.328125 557.789062 227.34375 557.015625 C 227.359375 556.253906 227.996094 555.640625 228.765625 555.65625 C 229.535156 555.675781 230.152344 556.3125 230.128906 557.082031 "/>
<path style=" stroke:none;fill-rule:nonzero;fill:rgb(25.099182%,22.349548%,47.059631%);fill-opacity:1;" d="M 239.066406 554.914062 C 239.03125 556.660156 237.585938 558.046875 235.832031 558.007812 C 234.082031 557.972656 232.699219 556.519531 232.734375 554.773438 C 232.773438 553.027344 234.222656 551.632812 235.972656 551.671875 C 237.71875 551.707031 239.113281 553.160156 239.066406 554.914062 "/>
<path style=" stroke:none;fill-rule:nonzero;fill:rgb(58.039856%,53.729248%,79.998779%);fill-opacity:1;" d="M 237.296875 554.871094 C 237.28125 555.640625 236.644531 556.253906 235.875 556.230469 C 235.105469 556.21875 234.492188 555.582031 234.503906 554.808594 C 234.527344 554.039062 235.164062 553.425781 235.933594 553.449219 C 236.703125 553.460938 237.3125 554.097656 237.296875 554.871094 "/>
<path style=" stroke:none;fill-rule:nonzero;fill:rgb(25.099182%,22.349548%,47.059631%);fill-opacity:1;" d="M 210.289062 562.296875 L 240.464844 554.328125 C 240.734375 554.261719 240.894531 553.980469 240.820312 553.714844 C 240.753906 553.441406 240.472656 553.277344 240.207031 553.351562 L 210.03125 561.320312 C 209.757812 561.394531 209.59375 561.667969 209.667969 561.941406 C 209.742188 562.207031 210.015625 562.371094 210.289062 562.296875 "/>
<path style=" stroke:none;fill-rule:nonzero;fill:rgb(75.689697%,13.729858%,52.938843%);fill-opacity:1;" d="M 229.097656 247.425781 L 213.246094 279.890625 C 213.246094 279.890625 220.507812 288.320312 230.246094 288.296875 L 256.847656 249.96875 L 229.097656 247.425781 "/>
<path style=" stroke:none;fill-rule:nonzero;fill:rgb(93.328857%,39.608765%,52.549744%);fill-opacity:1;" d="M 225.9375 535.867188 C 225.9375 535.867188 227.589844 536.769531 230.425781 534.839844 C 231.078125 534.394531 212.476562 441.671875 212.476562 441.671875 L 265.246094 402.804688 L 231.90625 391.652344 C 231.90625 391.652344 195.28125 421.730469 193.25 427.476562 C 191.222656 433.222656 190.546875 438.96875 193.25 444.375 C 193.25 444.375 225.195312 535.652344 225.9375 535.867188 "/>
<path style=" stroke:none;fill-rule:nonzero;fill:rgb(87.838745%,29.40979%,45.098877%);fill-opacity:1;" d="M 229.664062 261.140625 C 230.0625 257.535156 230.574219 244.671875 231.226562 243.769531 C 231.226562 243.769531 243.96875 240.390625 244.101562 238.140625 C 244.296875 234.890625 247.191406 226.691406 247.746094 217.449219 C 247.878906 215.148438 264.453125 205.039062 264.453125 205.039062 C 264.453125 205.039062 264.75 228.980469 268.324219 236.941406 C 268.324219 236.941406 281.046875 240.082031 295.554688 245.324219 C 296.878906 245.804688 299.257812 258.617188 299.773438 261.140625 L 229.664062 261.140625 "/>
<path style=" stroke:none;fill-rule:nonzero;fill:rgb(78.42865%,21.958923%,38.42926%);fill-opacity:1;" d="M 248.101562 216.761719 L 248.449219 216.324219 L 248.714844 216.050781 C 248.878906 215.894531 249.042969 215.726562 249.226562 215.5625 L 249.582031 215.25 C 249.789062 215.066406 250.003906 214.882812 250.234375 214.6875 L 250.640625 214.363281 C 250.902344 214.164062 251.160156 213.957031 251.441406 213.742188 L 251.871094 213.414062 C 252.175781 213.1875 252.5 212.941406 252.832031 212.710938 L 253.210938 212.429688 C 253.617188 212.132812 254.03125 211.84375 254.453125 211.554688 L 254.632812 211.421875 C 255.640625 210.726562 256.675781 210.03125 257.675781 209.355469 L 257.839844 209.253906 C 258.277344 208.972656 258.699219 208.699219 259.113281 208.425781 L 259.476562 208.1875 C 259.808594 207.964844 260.140625 207.75 260.460938 207.542969 L 260.851562 207.296875 C 261.140625 207.113281 261.421875 206.9375 261.691406 206.773438 L 262.058594 206.535156 C 262.28125 206.394531 262.488281 206.261719 262.683594 206.144531 L 263.113281 205.875 L 263.445312 205.667969 L 263.867188 205.402344 L 264.453125 205.277344 L 264.460938 205.519531 L 264.46875 205.789062 C 264.472656 205.9375 264.472656 206.0625 264.472656 206.246094 C 264.480469 206.46875 264.488281 206.726562 264.496094 207.003906 C 264.503906 207.179688 264.503906 207.351562 264.511719 207.542969 C 264.519531 207.816406 264.535156 208.105469 264.539062 208.417969 C 264.546875 208.742188 264.5625 209.082031 264.570312 209.445312 L 264.59375 209.90625 C 264.621094 210.511719 264.644531 211.164062 264.679688 211.851562 L 264.6875 212.105469 C 264.792969 214.230469 264.941406 216.644531 265.140625 219.175781 L 265.15625 219.316406 C 265.238281 220.28125 265.320312 221.242188 265.421875 222.21875 L 265.4375 222.433594 C 265.488281 222.945312 265.539062 223.449219 265.601562 223.953125 C 260.445312 231.171875 252.8125 239.273438 243.730469 238.824219 L 243.621094 238.910156 C 243.902344 238.644531 244.09375 238.386719 244.101562 238.140625 C 244.296875 234.890625 247.191406 226.691406 247.746094 217.449219 C 247.753906 217.316406 247.828125 217.148438 247.945312 216.960938 L 248.101562 216.761719 "/>
<path style=" stroke:none;fill-rule:nonzero;fill:rgb(58.039856%,53.729248%,79.998779%);fill-opacity:1;" d="M 294.332031 344.621094 C 251.507812 348.984375 226.972656 344.621094 226.972656 344.621094 C 226.972656 344.621094 226.464844 367.71875 226.464844 375.539062 C 226.464844 378.863281 226.582031 382.550781 226.804688 386.527344 C 224.257812 388.96875 220.027344 395.242188 213.867188 400.832031 C 218.355469 405.640625 227.34375 416.316406 246.058594 418.40625 C 269.53125 405.9375 300.003906 394.421875 300.382812 385.214844 C 301.457031 358.714844 294.332031 344.621094 294.332031 344.621094 "/>
<path style=" stroke:none;fill-rule:nonzero;fill:rgb(89.7995%,14.509583%,61.178589%);fill-opacity:1;" d="M 225.566406 354.171875 L 227.929688 256.921875 C 227.929688 256.921875 227.390625 248.886719 230.292969 244.355469 C 231.839844 241.941406 238.695312 240.207031 242.753906 239.5625 C 242.753906 239.5625 240.164062 252.691406 249.722656 252.535156 C 249.722656 252.535156 263.917969 253.714844 270.871094 237.609375 C 270.871094 237.609375 298.566406 238.949219 297.921875 248.835938 C 297.921875 248.835938 299.457031 352.308594 297.628906 354.691406 C 297.628906 354.691406 259.890625 357.558594 225.566406 354.171875 "/>
<path style=" stroke:none;fill-rule:nonzero;fill:rgb(93.328857%,39.608765%,52.549744%);fill-opacity:1;" d="M 244.375 228.046875 C 244.375 228.046875 245.628906 228.839844 248.234375 228.210938 C 250.425781 227.675781 261.839844 220.398438 264.082031 211.421875 C 264.082031 211.421875 267.445312 211.984375 268.84375 207.78125 C 270.25 203.574219 268.429688 197.6875 264.015625 201.613281 C 264.015625 201.613281 265.199219 183.105469 257.070312 181.980469 C 248.9375 180.863281 233.386719 178.085938 232.667969 191.238281 C 232.667969 191.238281 232.410156 203.003906 234.644531 212.925781 C 234.644531 212.925781 237.015625 221.144531 244.375 228.046875 "/>
<path style=" stroke:none;fill-rule:nonzero;fill:rgb(25.099182%,22.349548%,47.059631%);fill-opacity:1;" d="M 232.660156 192.382812 C 231.707031 189.511719 232.105469 184.511719 234.632812 180.949219 C 239.867188 173.554688 259.757812 166.457031 270.523438 180.949219 C 278.382812 191.511719 273.53125 207.734375 268.84375 212.335938 C 265.058594 216.058594 267.605469 218.355469 266.882812 220.363281 C 266.378906 221.753906 265.851562 221.902344 265.378906 221.820312 C 264.96875 218.390625 264.039062 214.734375 263.917969 212.015625 C 263.976562 211.824219 264.03125 211.625 264.082031 211.421875 C 264.082031 211.421875 267.445312 211.984375 268.84375 207.78125 C 270.226562 203.640625 268.480469 197.871094 264.214844 201.449219 C 263.835938 201.980469 263.40625 202.5 263.03125 202.730469 C 262.121094 203.292969 258.039062 199.277344 259.046875 195.347656 C 259.046875 195.347656 247.894531 196.425781 238.941406 184.097656 C 238.941406 184.097656 234 189.132812 232.660156 192.382812 "/>
<path style=" stroke:none;fill-rule:nonzero;fill:rgb(16.859436%,18.429565%,31.759644%);fill-opacity:1;" d="M 248.199219 200.640625 C 248.671875 199.960938 249.449219 199.507812 250.34375 199.507812 C 251.308594 199.507812 252.152344 200.042969 252.597656 200.828125 C 252.699219 201.003906 252.921875 201.0625 253.101562 200.96875 C 253.277344 200.863281 253.34375 200.640625 253.242188 200.457031 C 252.671875 199.457031 251.589844 198.769531 250.34375 198.769531 C 249.195312 198.769531 248.191406 199.34375 247.589844 200.226562 L 247.6875 200.746094 L 248.203125 200.640625 "/>
<path style=" stroke:none;fill-rule:nonzero;fill:rgb(16.859436%,18.429565%,31.759644%);fill-opacity:1;" d="M 249.003906 202.179688 C 249.003906 202.890625 249.574219 203.460938 250.277344 203.460938 C 250.980469 203.460938 251.550781 202.890625 251.550781 202.179688 C 251.550781 201.476562 250.980469 200.90625 250.277344 200.90625 C 249.574219 200.90625 249.003906 201.476562 249.003906 202.179688 "/>
<path style=" stroke:none;fill-rule:nonzero;fill:rgb(16.859436%,18.429565%,31.759644%);fill-opacity:1;" d="M 235.578125 200.640625 C 236.054688 199.960938 236.832031 199.507812 237.726562 199.507812 C 238.695312 199.507812 239.535156 200.042969 239.976562 200.828125 C 240.082031 201.003906 240.304688 201.0625 240.480469 200.96875 C 240.660156 200.863281 240.726562 200.640625 240.621094 200.457031 C 240.050781 199.457031 238.96875 198.769531 237.726562 198.769531 C 236.578125 198.769531 235.570312 199.34375 234.972656 200.226562 L 235.066406 200.746094 L 235.585938 200.648438 "/>
<path style=" stroke:none;fill-rule:nonzero;fill:rgb(16.859436%,18.429565%,31.759644%);fill-opacity:1;" d="M 236.386719 202.179688 C 236.386719 202.890625 236.957031 203.460938 237.660156 203.460938 C 238.371094 203.460938 238.941406 202.890625 238.941406 202.179688 C 238.941406 201.476562 238.371094 200.90625 237.660156 200.90625 C 236.957031 200.90625 236.386719 201.476562 236.386719 202.179688 "/>
<path style=" stroke:none;fill-rule:nonzero;fill:rgb(100%,100%,100%);fill-opacity:1;" d="M 249.722656 215.125 L 238.761719 215.125 C 238.761719 215.125 244.546875 222.167969 249.722656 215.125 "/>
<path style=" stroke:none;fill-rule:nonzero;fill:rgb(58.039856%,53.729248%,79.998779%);fill-opacity:1;" d="M 223.566406 532.601562 L 230.484375 531.164062 C 230.484375 531.164062 236.496094 543.613281 235.777344 550.558594 C 235.371094 554.476562 213.46875 558.410156 210.933594 557.90625 C 210.933594 557.90625 207.890625 552.839844 216.382812 549.417969 C 216.382812 549.417969 222.332031 546.257812 222.597656 543.738281 C 222.9375 540.414062 223.566406 532.601562 223.566406 532.601562 "/>
<path style=" stroke:none;fill-rule:nonzero;fill:rgb(93.328857%,39.608765%,52.549744%);fill-opacity:1;" d="M 284.625 267.734375 L 334.238281 289.296875 L 302.929688 337.578125 L 307.566406 340.695312 C 307.566406 340.695312 346.316406 296.308594 350.78125 290.527344 C 355.246094 284.742188 309.074219 252.898438 309.074219 252.898438 C 309.074219 252.898438 285.3125 255.277344 284.625 267.734375 "/>
<path style=" stroke:none;fill-rule:nonzero;fill:rgb(93.328857%,39.608765%,52.549744%);fill-opacity:1;" d="M 309.007812 336.046875 C 309.007812 336.046875 310.519531 341.925781 306.78125 344.902344 C 305.292969 346.085938 300.539062 349.625 299.945312 348.878906 C 299.351562 348.136719 297.65625 346.308594 297.085938 345.292969 C 297.085938 345.292969 294.835938 344.894531 294.761719 342.511719 C 294.761719 342.511719 291.230469 339.46875 294.007812 337.742188 C 296.78125 336.015625 304.195312 330.601562 309.007812 336.046875 "/>
<path style=" stroke:none;fill-rule:nonzero;fill:rgb(89.7995%,14.509583%,61.178589%);fill-opacity:1;" d="M 295.804688 244.257812 L 331.253906 265.859375 C 331.253906 265.859375 324.417969 277.765625 317.851562 284.957031 L 281.882812 272.464844 L 285.429688 261.628906 L 295.804688 244.257812 "/>
<path style=" stroke:none;fill-rule:nonzero;fill:rgb(25.099182%,22.349548%,47.059631%);fill-opacity:1;" d="M 197.398438 418.40625 C 197.398438 418.40625 204.269531 425.53125 204.269531 432.21875 C 204.269531 438.898438 197.199219 449.40625 191.472656 447.878906 C 185.742188 446.347656 184.980469 428.476562 197.398438 418.40625 "/>
<path style=" stroke:none;fill-rule:nonzero;fill:rgb(25.099182%,22.349548%,47.059631%);fill-opacity:1;" d="M 199.492188 432.410156 L 213.867188 441.242188 L 213.867188 444.25 L 195.878906 441.242188 L 199.492188 432.410156 "/>
<path style=" stroke:none;fill-rule:nonzero;fill:rgb(25.099182%,22.349548%,47.059631%);fill-opacity:1;" d="M 264.042969 457.285156 C 264.042969 457.285156 273.226562 453.582031 279.425781 456.089844 C 285.625 458.59375 292.710938 469.085938 289.140625 473.828125 C 285.578125 478.558594 268.726562 472.566406 264.042969 457.285156 "/>
<path style=" stroke:none;fill-rule:nonzero;fill:rgb(25.099182%,22.349548%,47.059631%);fill-opacity:1;" d="M 277.8125 460.585938 L 291.390625 450.574219 L 294.175781 451.699219 L 284.644531 467.25 L 277.8125 460.585938 "/>
<path style=" stroke:none;fill-rule:nonzero;fill:rgb(25.099182%,22.349548%,47.059631%);fill-opacity:1;" d="M 262.046875 191.511719 C 262.046875 191.511719 258.957031 216.867188 253.433594 225.464844 C 253.433594 225.464844 254.75 226.8125 256.847656 222.339844 C 256.847656 222.339844 261.703125 210.972656 263.902344 194.9375 L 262.046875 191.511719 "/>
<path style=" stroke:none;fill-rule:nonzero;fill:rgb(56.079102%,59.21936%,81.568909%);fill-opacity:1;" d="M 231.070312 184.210938 C 231.070312 184.210938 261.460938 190.941406 274.308594 202.179688 C 274.308594 202.179688 277.90625 202.109375 275.472656 198.53125 C 275.472656 198.53125 277.972656 183.660156 274.6875 178.515625 C 271.546875 173.605469 259.28125 163.84375 244.671875 169.4375 C 244.671875 169.4375 239.148438 172.175781 232.882812 181.625 C 232.882812 181.625 230.144531 181.59375 231.070312 184.210938 "/>
<path style=" stroke:none;fill-rule:nonzero;fill:rgb(25.099182%,22.349548%,47.059631%);fill-opacity:1;" d="M 203.101562 302.617188 C 203.101562 302.617188 205.789062 316.5625 205.417969 321.753906 C 205.417969 321.753906 206.441406 323.65625 210.363281 319.976562 L 206.863281 301.476562 C 206.863281 301.476562 203.863281 301.46875 203.101562 302.617188 "/>
<path style=" stroke:none;fill-rule:nonzero;fill:rgb(25.099182%,22.349548%,47.059631%);fill-opacity:1;" d="M 201.605469 318.414062 C 201.605469 318.414062 207.609375 321.777344 213.867188 317.382812 C 213.867188 317.382812 208.859375 328.921875 201.605469 318.414062 "/>
<path style=" stroke:none;fill-rule:nonzero;fill:rgb(25.099182%,22.349548%,47.059631%);fill-opacity:1;" d="M 333.460938 288.964844 C 333.460938 288.964844 349.257812 286.980469 349.96875 286.757812 C 349.96875 286.757812 353.085938 289.59375 349.492188 292.125 L 333.699219 290.125 C 333.699219 290.125 332.765625 289.570312 333.460938 288.964844 "/>
</g>
</svg>
